<svg width="136" height="40" viewBox="0 0 136 40" fill="none" xmlns="http://www.w3.org/2000/svg">
<path d="M14.04 0.999999V15H13.02V1.92H3.54V15H2.52V0.999999H14.04ZM35.6225 10.02H26.6425C26.6692 10.8333 26.8758 11.56 27.2625 12.2C27.6492 12.8267 28.1692 13.3133 28.8225 13.66C29.4892 14.0067 30.2358 14.18 31.0625 14.18C31.7425 14.18 32.3692 14.06 32.9425 13.82C33.5292 13.5667 34.0158 13.2 34.4025 12.72L34.9825 13.38C34.5292 13.9267 33.9558 14.3467 33.2625 14.64C32.5825 14.9333 31.8425 15.08 31.0425 15.08C30.0025 15.08 29.0758 14.8533 28.2625 14.4C27.4492 13.9467 26.8092 13.32 26.3425 12.52C25.8892 11.72 25.6625 10.8067 25.6625 9.78C25.6625 8.76667 25.8758 7.86 26.3025 7.06C26.7425 6.24667 27.3425 5.61333 28.1025 5.16C28.8625 4.70667 29.7158 4.48 30.6625 4.48C31.6092 4.48 32.4558 4.70667 33.2025 5.16C33.9625 5.6 34.5558 6.22 34.9825 7.02C35.4225 7.82 35.6425 8.72667 35.6425 9.74L35.6225 10.02ZM30.6625 5.36C29.9292 5.36 29.2692 5.52667 28.6825 5.86C28.0958 6.18 27.6225 6.64 27.2625 7.24C26.9158 7.82667 26.7158 8.49333 26.6625 9.24H34.6625C34.6225 8.49333 34.4225 7.82667 34.0625 7.24C33.7025 6.65333 33.2292 6.19333 32.6425 5.86C32.0558 5.52667 31.3958 5.36 30.6625 5.36ZM28.9425 2.32C28.7425 2.32 28.5692 2.25333 28.4225 2.12C28.2892 1.97333 28.2225 1.8 28.2225 1.6C28.2225 1.38667 28.2892 1.21333 28.4225 1.08C28.5692 0.946666 28.7425 0.879999 28.9425 0.879999C29.1425 0.879999 29.3092 0.953333 29.4425 1.1C29.5892 1.23333 29.6625 1.4 29.6625 1.6C29.6625 1.8 29.5892 1.97333 29.4425 2.12C29.2958 2.25333 29.1292 2.32 28.9425 2.32ZM32.3825 2.32C32.1958 2.32 32.0292 2.25333 31.8825 2.12C31.7358 1.97333 31.6625 1.8 31.6625 1.6C31.6625 1.4 31.7292 1.23333 31.8625 1.1C32.0092 0.953333 32.1825 0.879999 32.3825 0.879999C32.5825 0.879999 32.7492 0.946666 32.8825 1.08C33.0292 1.21333 33.1025 1.38667 33.1025 1.6C33.1025 1.8 33.0292 1.97333 32.8825 2.12C32.7492 2.25333 32.5825 2.32 32.3825 2.32ZM53.4017 5.46H49.3217V15H48.3217V5.46H44.2417V4.56H53.4017V5.46ZM68.8028 4.48C69.7761 4.48 70.6561 4.70667 71.4428 5.16C72.2295 5.61333 72.8428 6.24 73.2828 7.04C73.7361 7.84 73.9628 8.75333 73.9628 9.78C73.9628 10.8067 73.7361 11.7267 73.2828 12.54C72.8428 13.34 72.2295 13.9667 71.4428 14.42C70.6561 14.86 69.7761 15.08 68.8028 15.08C67.8828 15.08 67.0495 14.8667 66.3028 14.44C65.5561 14 64.9761 13.3933 64.5628 12.62V18.88H63.5628V4.56H64.5228V7.02C64.9361 6.22 65.5161 5.6 66.2628 5.16C67.0228 4.70667 67.8695 4.48 68.8028 4.48ZM68.7428 14.18C69.5428 14.18 70.2628 13.9933 70.9028 13.62C71.5428 13.2467 72.0428 12.7267 72.4028 12.06C72.7761 11.3933 72.9628 10.6333 72.9628 9.78C72.9628 8.92667 72.7761 8.16667 72.4028 7.5C72.0428 6.83333 71.5428 6.31333 70.9028 5.94C70.2628 5.56667 69.5428 5.38 68.7428 5.38C67.9428 5.38 67.2228 5.56667 66.5828 5.94C65.9561 6.31333 65.4561 6.83333 65.0828 7.5C64.7228 8.16667 64.5428 8.92667 64.5428 9.78C64.5428 10.6333 64.7228 11.3933 65.0828 12.06C65.4561 12.7267 65.9561 13.2467 66.5828 13.62C67.2228 13.9933 67.9428 14.18 68.7428 14.18ZM13.1 25V39H12.08V25.92H4.84L4.66 31.06C4.58 32.98 4.41333 34.5267 4.16 35.7C3.92 36.86 3.56 37.72 3.08 38.28C2.6 38.84 1.96667 39.12 1.18 39.12C0.82 39.12 0.486667 39.08 0.18 39L0.3 38.06C0.526667 38.1133 0.746667 38.14 0.96 38.14C1.57333 38.14 2.06667 37.9067 2.44 37.44C2.82667 36.96 3.12 36.2067 3.32 35.18C3.52 34.1533 3.65333 32.7867 3.72 31.08L3.92 25H13.1ZM25.785 28.56H26.785V37.46L34.225 28.56H35.105V39H34.105V30.1L26.665 39H25.785V28.56ZM53.9578 39L50.3778 34.34L46.7978 39H45.6578L49.7978 33.62L45.8778 28.56H47.0178L50.3778 32.9L53.7378 28.56H54.8578L50.9378 33.62L55.1378 39H53.9578ZM68.9364 28.48C70.2297 28.48 71.2231 28.8133 71.9164 29.48C72.6097 30.1333 72.9564 31.1 72.9564 32.38V39H71.9964V37.14C71.6631 37.7533 71.1764 38.2333 70.5364 38.58C69.8964 38.9133 69.1297 39.08 68.2364 39.08C67.0764 39.08 66.1564 38.8067 65.4764 38.26C64.8097 37.7133 64.4764 36.9933 64.4764 36.1C64.4764 35.2333 64.7831 34.5333 65.3964 34C66.0231 33.4533 67.0164 33.18 68.3764 33.18H71.9564V32.34C71.9564 31.3667 71.6897 30.6267 71.1564 30.12C70.6364 29.6133 69.8697 29.36 68.8564 29.36C68.1631 29.36 67.4964 29.48 66.8564 29.72C66.2297 29.96 65.6964 30.28 65.2564 30.68L64.7564 29.96C65.2764 29.4933 65.9031 29.1333 66.6364 28.88C67.3697 28.6133 68.1364 28.48 68.9364 28.48ZM68.3764 38.26C69.2431 38.26 69.9764 38.06 70.5764 37.66C71.1897 37.26 71.6497 36.68 71.9564 35.92V33.96H68.3964C67.3697 33.96 66.6231 34.1467 66.1564 34.52C65.7031 34.8933 65.4764 35.4067 65.4764 36.06C65.4764 36.74 65.7297 37.28 66.2364 37.68C66.7431 38.0667 67.4564 38.26 68.3764 38.26ZM85.0194 28.56H86.0194V33.32H93.0994V28.56H94.0994V39H93.0994V34.2H86.0194V39H85.0194V28.56ZM110.578 39.08C109.591 39.08 108.698 38.8533 107.898 38.4C107.111 37.9467 106.491 37.32 106.038 36.52C105.584 35.7067 105.358 34.7933 105.358 33.78C105.358 32.7667 105.584 31.86 106.038 31.06C106.491 30.2467 107.111 29.6133 107.898 29.16C108.698 28.7067 109.591 28.48 110.578 28.48C111.564 28.48 112.451 28.7067 113.238 29.16C114.038 29.6133 114.664 30.2467 115.118 31.06C115.571 31.86 115.798 32.7667 115.798 33.78C115.798 34.7933 115.571 35.7067 115.118 36.52C114.664 37.32 114.038 37.9467 113.238 38.4C112.451 38.8533 111.564 39.08 110.578 39.08ZM110.578 38.18C111.378 38.18 112.091 37.9933 112.718 37.62C113.358 37.2467 113.858 36.7267 114.218 36.06C114.591 35.3933 114.778 34.6333 114.778 33.78C114.778 32.9267 114.591 32.1667 114.218 31.5C113.858 30.8333 113.358 30.3133 112.718 29.94C112.091 29.5667 111.378 29.38 110.578 29.38C109.778 29.38 109.058 29.5667 108.418 29.94C107.791 30.3133 107.291 30.8333 106.918 31.5C106.558 32.1667 106.378 32.9267 106.378 33.78C106.378 34.6333 106.558 35.3933 106.918 36.06C107.291 36.7267 107.791 37.2467 108.418 37.62C109.058 37.9933 109.778 38.18 110.578 38.18ZM133.235 33.62C134.768 33.8867 135.535 34.7467 135.535 36.2C135.535 37.1067 135.201 37.8 134.535 38.28C133.881 38.76 132.895 39 131.575 39H127.055V28.56H131.455C132.615 28.56 133.521 28.7933 134.175 29.26C134.841 29.7133 135.175 30.3667 135.175 31.22C135.175 31.8333 135.001 32.3467 134.655 32.76C134.321 33.16 133.848 33.4467 133.235 33.62ZM128.035 33.32H131.395C132.288 33.32 132.975 33.1533 133.455 32.82C133.935 32.4733 134.175 31.98 134.175 31.34C134.175 30.6867 133.935 30.2 133.455 29.88C132.988 29.5467 132.301 29.38 131.395 29.38H128.035V33.32ZM131.555 38.18C133.541 38.18 134.535 37.5067 134.535 36.16C134.535 35.4533 134.308 34.9333 133.855 34.6C133.401 34.2667 132.688 34.1 131.715 34.1H128.035V38.18H131.555Z" fill="black"/>
</svg>
