<svg width="677" height="76" viewBox="0 0 677 76" fill="none" xmlns="http://www.w3.org/2000/svg">
<path d="M25.732 67.936C17.932 67.936 11.848 65.778 7.48 61.462C3.164 57.146 1.006 50.984 1.006 42.976V12.4H13.642V42.508C13.642 52.284 17.698 57.172 25.81 57.172C29.762 57.172 32.778 56.002 34.858 53.662C36.938 51.27 37.978 47.552 37.978 42.508V12.4H50.458V42.976C50.458 50.984 48.274 57.146 43.906 61.462C39.59 65.778 33.532 67.936 25.732 67.936ZM96.581 67L83.399 48.046L70.451 67H55.943L76.145 39.232L56.957 12.4H71.309L83.867 30.106L96.191 12.4H109.841L90.809 38.764L111.167 67H96.581ZM135.623 1.32399H146.465L120.725 74.8H109.883L135.623 1.32399ZM173.734 67.936C165.934 67.936 159.85 65.778 155.482 61.462C151.166 57.146 149.008 50.984 149.008 42.976V12.4H161.644V42.508C161.644 52.284 165.7 57.172 173.812 57.172C177.764 57.172 180.78 56.002 182.86 53.662C184.94 51.27 185.98 47.552 185.98 42.508V12.4H198.46V42.976C198.46 50.984 196.276 57.146 191.908 61.462C187.592 65.778 181.534 67.936 173.734 67.936ZM210.947 12.4H223.583V67H210.947V12.4ZM258.63 12.4H283.434C289.362 12.4 294.588 13.544 299.112 15.832C303.688 18.068 307.224 21.24 309.72 25.348C312.268 29.456 313.542 34.24 313.542 39.7C313.542 45.16 312.268 49.944 309.72 54.052C307.224 58.16 303.688 61.358 299.112 63.646C294.588 65.882 289.362 67 283.434 67H258.63V12.4ZM282.81 56.626C288.27 56.626 292.612 55.118 295.836 52.102C299.112 49.034 300.75 44.9 300.75 39.7C300.75 34.5 299.112 30.392 295.836 27.376C292.612 24.308 288.27 22.774 282.81 22.774H271.266V56.626H282.81ZM365.348 56.86V67H323.072V12.4H364.334V22.54H335.63V34.396H360.98V44.224H335.63V56.86H365.348ZM393.342 67.936C389.026 67.936 384.84 67.364 380.784 66.22C376.78 65.024 373.556 63.49 371.112 61.618L375.402 52.102C377.742 53.818 380.524 55.196 383.748 56.236C386.972 57.276 390.196 57.796 393.42 57.796C397.008 57.796 399.66 57.276 401.376 56.236C403.092 55.144 403.95 53.714 403.95 51.946C403.95 50.646 403.43 49.58 402.39 48.748C401.402 47.864 400.102 47.162 398.49 46.642C396.93 46.122 394.798 45.55 392.094 44.926C387.934 43.938 384.528 42.95 381.876 41.962C379.224 40.974 376.936 39.388 375.012 37.204C373.14 35.02 372.204 32.108 372.204 28.468C372.204 25.296 373.062 22.436 374.778 19.888C376.494 17.288 379.068 15.234 382.5 13.726C385.984 12.218 390.222 11.464 395.214 11.464C398.698 11.464 402.104 11.88 405.432 12.712C408.76 13.544 411.672 14.74 414.168 16.3L410.268 25.894C405.224 23.034 400.18 21.604 395.136 21.604C391.6 21.604 388.974 22.176 387.258 23.32C385.594 24.464 384.762 25.972 384.762 27.844C384.762 29.716 385.724 31.12 387.648 32.056C389.624 32.94 392.614 33.824 396.618 34.708C400.778 35.696 404.184 36.684 406.836 37.672C409.488 38.66 411.75 40.22 413.622 42.352C415.546 44.484 416.508 47.37 416.508 51.01C416.508 54.13 415.624 56.99 413.856 59.59C412.14 62.138 409.54 64.166 406.056 65.674C402.572 67.182 398.334 67.936 393.342 67.936ZM425.142 12.4H437.778V67H425.142V12.4ZM487.63 38.842H499.174V60.994C496.21 63.23 492.778 64.946 488.878 66.142C484.978 67.338 481.052 67.936 477.1 67.936C471.432 67.936 466.336 66.74 461.812 64.348C457.288 61.904 453.726 58.55 451.126 54.286C448.578 49.97 447.304 45.108 447.304 39.7C447.304 34.292 448.578 29.456 451.126 25.192C453.726 20.876 457.314 17.522 461.89 15.13C466.466 12.686 471.614 11.464 477.334 11.464C482.118 11.464 486.46 12.27 490.36 13.882C494.26 15.494 497.536 17.834 500.188 20.902L492.076 28.39C488.176 24.282 483.47 22.228 477.958 22.228C474.474 22.228 471.38 22.956 468.676 24.412C465.972 25.868 463.866 27.922 462.358 30.574C460.85 33.226 460.096 36.268 460.096 39.7C460.096 43.08 460.85 46.096 462.358 48.748C463.866 51.4 465.946 53.48 468.598 54.988C471.302 56.444 474.37 57.172 477.802 57.172C481.442 57.172 484.718 56.392 487.63 54.832V38.842ZM560.988 12.4V67H550.614L523.392 33.85V67H510.912V12.4H521.364L548.507 45.55V12.4H560.988ZM616.182 56.86V67H573.906V12.4H615.168V22.54H586.464V34.396H611.814V44.224H586.464V56.86H616.182ZM661.024 67L650.494 51.79H649.87H638.872V67H626.236V12.4H649.87C654.706 12.4 658.892 13.206 662.428 14.818C666.016 16.43 668.772 18.718 670.696 21.682C672.62 24.646 673.582 28.156 673.582 32.212C673.582 36.268 672.594 39.778 670.618 42.742C668.694 45.654 665.938 47.89 662.35 49.45L674.596 67H661.024ZM660.79 32.212C660.79 29.144 659.802 26.804 657.826 25.192C655.85 23.528 652.964 22.696 649.168 22.696H638.872V41.728H649.168C652.964 41.728 655.85 40.896 657.826 39.232C659.802 37.568 660.79 35.228 660.79 32.212Z" fill="white"/>
<path d="M7.48 61.462L6.77288 62.1691L6.77714 62.1733L7.48 61.462ZM1.006 12.4V11.4H0.00600055V12.4H1.006ZM13.642 12.4H14.642V11.4H13.642V12.4ZM34.858 53.662L35.6055 54.3264L35.6126 54.3182L34.858 53.662ZM37.978 12.4V11.4H36.978V12.4H37.978ZM50.458 12.4H51.458V11.4H50.458V12.4ZM43.906 61.462L43.2031 60.7507L43.1989 60.7549L43.906 61.462ZM25.732 66.936C18.1206 66.936 12.3166 64.8352 8.18286 60.7507L6.77714 62.1733C11.3794 66.7208 17.7434 68.936 25.732 68.936V66.936ZM8.18711 60.7549C4.11176 56.6795 2.006 50.8048 2.006 42.976H0.00600055C0.00600055 51.1632 2.21625 57.6125 6.77289 62.1691L8.18711 60.7549ZM2.006 42.976V12.4H0.00600055V42.976H2.006ZM1.006 13.4H13.642V11.4H1.006V13.4ZM12.642 12.4V42.508H14.642V12.4H12.642ZM12.642 42.508C12.642 47.5094 13.6757 51.4466 15.9144 54.1446C18.1828 56.8783 21.5457 58.172 25.81 58.172V56.172C21.9623 56.172 19.2412 55.0217 17.4536 52.8674C15.6363 50.6774 14.642 47.2826 14.642 42.508H12.642ZM25.81 58.172C29.9672 58.172 33.2881 56.9334 35.6054 54.3264L34.1106 52.9976C32.2679 55.0706 29.5568 56.172 25.81 56.172V58.172ZM35.6126 54.3182C37.9212 51.6633 38.978 47.6584 38.978 42.508H36.978C36.978 47.4456 35.9548 50.8767 34.1034 53.0058L35.6126 54.3182ZM38.978 42.508V12.4H36.978V42.508H38.978ZM37.978 13.4H50.458V11.4H37.978V13.4ZM49.458 12.4V42.976H51.458V12.4H49.458ZM49.458 42.976C49.458 50.8015 47.3282 56.6748 43.2031 60.7507L44.6089 62.1733C49.2198 57.6172 51.458 51.1665 51.458 42.976H49.458ZM43.1989 60.7549C39.1188 64.835 33.3441 66.936 25.732 66.936V68.936C33.7199 68.936 40.0612 66.721 44.6131 62.1691L43.1989 60.7549ZM96.581 67L95.76 67.571L96.0584 68H96.581V67ZM83.399 48.046L84.22 47.475L83.3916 46.284L82.5733 47.4819L83.399 48.046ZM70.451 67V68H70.9789L71.2767 67.5641L70.451 67ZM55.943 67L55.1343 66.4117L53.9788 68H55.943V67ZM76.145 39.232L76.9536 39.8203L77.378 39.237L76.9584 38.6503L76.145 39.232ZM56.957 12.4V11.4H55.0125L56.1436 12.9817L56.957 12.4ZM71.309 12.4L72.1247 11.8215L71.8257 11.4H71.309V12.4ZM83.867 30.106L83.0513 30.6845L83.8747 31.8454L84.6877 30.6773L83.867 30.106ZM96.191 12.4V11.4H95.6686L95.3702 11.8287L96.191 12.4ZM109.841 12.4L110.652 12.9853L111.796 11.4H109.841V12.4ZM90.809 38.764L89.9982 38.1787L89.5759 38.7636L89.9978 39.3488L90.809 38.764ZM111.167 67V68H113.121L111.978 66.4152L111.167 67ZM97.402 66.429L84.22 47.475L82.578 48.617L95.76 67.571L97.402 66.429ZM82.5733 47.4819L69.6253 66.4359L71.2767 67.5641L84.2247 48.6101L82.5733 47.4819ZM70.451 66H55.943V68H70.451V66ZM56.7516 67.5883L76.9536 39.8203L75.3363 38.6437L55.1343 66.4117L56.7516 67.5883ZM76.9584 38.6503L57.7704 11.8183L56.1436 12.9817L75.3316 39.8137L76.9584 38.6503ZM56.957 13.4H71.309V11.4H56.957V13.4ZM70.4933 12.9785L83.0513 30.6845L84.6827 29.5275L72.1247 11.8215L70.4933 12.9785ZM84.6877 30.6773L97.0117 12.9713L95.3702 11.8287L83.0462 29.5347L84.6877 30.6773ZM96.191 13.4H109.841V11.4H96.191V13.4ZM109.03 11.8147L89.9982 38.1787L91.6198 39.3493L110.652 12.9853L109.03 11.8147ZM89.9978 39.3488L110.356 67.5848L111.978 66.4152L91.6201 38.1792L89.9978 39.3488ZM111.167 66H96.581V68H111.167V66ZM135.623 1.32399V0.323995H134.914L134.679 0.993377L135.623 1.32399ZM146.465 1.32399L147.409 1.65461L147.875 0.323995H146.465V1.32399ZM120.725 74.8V75.8H121.434L121.669 75.1306L120.725 74.8ZM109.883 74.8L108.939 74.4694L108.473 75.8H109.883V74.8ZM135.623 2.32399H146.465V0.323995H135.623V2.32399ZM145.521 0.993377L119.781 74.4694L121.669 75.1306L147.409 1.65461L145.521 0.993377ZM120.725 73.8H109.883V75.8H120.725V73.8ZM110.827 75.1306L136.567 1.65461L134.679 0.993377L108.939 74.4694L110.827 75.1306ZM155.482 61.462L154.775 62.1691L154.779 62.1733L155.482 61.462ZM149.008 12.4V11.4H148.008V12.4H149.008ZM161.644 12.4H162.644V11.4H161.644V12.4ZM182.86 53.662L183.607 54.3264L183.615 54.3182L182.86 53.662ZM185.98 12.4V11.4H184.98V12.4H185.98ZM198.46 12.4H199.46V11.4H198.46V12.4ZM191.908 61.462L191.205 60.7507L191.201 60.7549L191.908 61.462ZM173.734 66.936C166.123 66.936 160.319 64.8352 156.185 60.7507L154.779 62.1733C159.381 66.7208 165.745 68.936 173.734 68.936V66.936ZM156.189 60.7549C152.114 56.6795 150.008 50.8048 150.008 42.976H148.008C148.008 51.1632 150.218 57.6125 154.775 62.1691L156.189 60.7549ZM150.008 42.976V12.4H148.008V42.976H150.008ZM149.008 13.4H161.644V11.4H149.008V13.4ZM160.644 12.4V42.508H162.644V12.4H160.644ZM160.644 42.508C160.644 47.5094 161.678 51.4466 163.916 54.1446C166.185 56.8783 169.548 58.172 173.812 58.172V56.172C169.964 56.172 167.243 55.0217 165.456 52.8674C163.638 50.6774 162.644 47.2826 162.644 42.508H160.644ZM173.812 58.172C177.969 58.172 181.29 56.9334 183.607 54.3264L182.113 52.9976C180.27 55.0706 177.559 56.172 173.812 56.172V58.172ZM183.615 54.3182C185.923 51.6633 186.98 47.6584 186.98 42.508H184.98C184.98 47.4456 183.957 50.8767 182.105 53.0058L183.615 54.3182ZM186.98 42.508V12.4H184.98V42.508H186.98ZM185.98 13.4H198.46V11.4H185.98V13.4ZM197.46 12.4V42.976H199.46V12.4H197.46ZM197.46 42.976C197.46 50.8015 195.33 56.6748 191.205 60.7507L192.611 62.1733C197.222 57.6172 199.46 51.1665 199.46 42.976H197.46ZM191.201 60.7549C187.121 64.835 181.346 66.936 173.734 66.936V68.936C181.722 68.936 188.063 66.721 192.615 62.1691L191.201 60.7549ZM210.947 12.4V11.4H209.947V12.4H210.947ZM223.583 12.4H224.583V11.4H223.583V12.4ZM223.583 67V68H224.583V67H223.583ZM210.947 67H209.947V68H210.947V67ZM210.947 13.4H223.583V11.4H210.947V13.4ZM222.583 12.4V67H224.583V12.4H222.583ZM223.583 66H210.947V68H223.583V66ZM211.947 67V12.4H209.947V67H211.947ZM258.63 12.4V11.4H257.63V12.4H258.63ZM299.112 15.832L298.661 16.7244L298.673 16.7305L299.112 15.832ZM309.72 25.348L308.866 25.8673L308.87 25.8751L309.72 25.348ZM309.72 54.052L308.87 53.5249L308.866 53.5327L309.72 54.052ZM299.112 63.646L299.555 64.5425L299.559 64.5404L299.112 63.646ZM258.63 67H257.63V68H258.63V67ZM295.836 52.102L296.519 52.8323L296.52 52.8319L295.836 52.102ZM295.836 27.376L295.147 28.1004L295.153 28.1061L295.159 28.1117L295.836 27.376ZM271.266 22.774V21.774H270.266V22.774H271.266ZM271.266 56.626H270.266V57.626H271.266V56.626ZM258.63 13.4H283.434V11.4H258.63V13.4ZM283.434 13.4C289.232 13.4 294.299 14.5182 298.661 16.7244L299.564 14.9396C294.878 12.5698 289.493 11.4 283.434 11.4V13.4ZM298.673 16.7305C303.088 18.8877 306.475 21.9327 308.866 25.8673L310.575 24.8287C307.973 20.5472 304.289 17.2483 299.551 14.9335L298.673 16.7305ZM308.87 25.8751C311.308 29.805 312.542 34.4015 312.542 39.7H314.542C314.542 34.0785 313.229 29.107 310.57 24.8209L308.87 25.8751ZM312.542 39.7C312.542 44.9985 311.308 49.595 308.87 53.5249L310.57 54.5791C313.229 50.293 314.542 45.3215 314.542 39.7H312.542ZM308.866 53.5327C306.474 57.4693 303.084 60.5421 298.665 62.7516L299.559 64.5404C304.293 62.1739 307.975 58.8507 310.575 54.5713L308.866 53.5327ZM298.669 62.7495C294.305 64.9065 289.235 66 283.434 66V68C289.489 68 294.871 66.8575 299.555 64.5425L298.669 62.7495ZM283.434 66H258.63V68H283.434V66ZM259.63 67V12.4H257.63V67H259.63ZM282.81 57.626C288.461 57.626 293.069 56.0603 296.519 52.8323L295.153 51.3717C292.156 54.1757 288.08 55.626 282.81 55.626V57.626ZM296.52 52.8319C300.03 49.5444 301.75 45.1286 301.75 39.7H299.75C299.75 44.6714 298.194 48.5236 295.153 51.3721L296.52 52.8319ZM301.75 39.7C301.75 34.2717 300.03 29.8778 296.514 26.6403L295.159 28.1117C298.194 30.9062 299.75 34.7282 299.75 39.7H301.75ZM296.526 26.6516C293.076 23.3684 288.465 21.774 282.81 21.774V23.774C288.075 23.774 292.149 25.2476 295.147 28.1004L296.526 26.6516ZM282.81 21.774H271.266V23.774H282.81V21.774ZM270.266 22.774V56.626H272.266V22.774H270.266ZM271.266 57.626H282.81V55.626H271.266V57.626ZM365.348 56.86H366.348V55.86H365.348V56.86ZM365.348 67V68H366.348V67H365.348ZM323.072 67H322.072V68H323.072V67ZM323.072 12.4V11.4H322.072V12.4H323.072ZM364.334 12.4H365.334V11.4H364.334V12.4ZM364.334 22.54V23.54H365.334V22.54H364.334ZM335.63 22.54V21.54H334.63V22.54H335.63ZM335.63 34.396H334.63V35.396H335.63V34.396ZM360.98 34.396H361.98V33.396H360.98V34.396ZM360.98 44.224V45.224H361.98V44.224H360.98ZM335.63 44.224V43.224H334.63V44.224H335.63ZM335.63 56.86H334.63V57.86H335.63V56.86ZM364.348 56.86V67H366.348V56.86H364.348ZM365.348 66H323.072V68H365.348V66ZM324.072 67V12.4H322.072V67H324.072ZM323.072 13.4H364.334V11.4H323.072V13.4ZM363.334 12.4V22.54H365.334V12.4H363.334ZM364.334 21.54H335.63V23.54H364.334V21.54ZM334.63 22.54V34.396H336.63V22.54H334.63ZM335.63 35.396H360.98V33.396H335.63V35.396ZM359.98 34.396V44.224H361.98V34.396H359.98ZM360.98 43.224H335.63V45.224H360.98V43.224ZM334.63 44.224V56.86H336.63V44.224H334.63ZM335.63 57.86H365.348V55.86H335.63V57.86ZM380.784 66.22L380.498 67.1782L380.505 67.1804L380.512 67.1824L380.784 66.22ZM371.112 61.618L370.2 61.207L369.874 61.9298L370.504 62.4119L371.112 61.618ZM375.402 52.102L375.993 51.2956L374.998 50.5655L374.49 51.691L375.402 52.102ZM383.748 56.236L384.055 55.2843L384.055 55.2843L383.748 56.236ZM401.376 56.236L401.894 57.0912L401.903 57.0855L401.913 57.0797L401.376 56.236ZM402.39 48.748L401.723 49.4932L401.743 49.5116L401.765 49.5289L402.39 48.748ZM398.49 46.642L398.173 47.5907L398.183 47.5937L398.49 46.642ZM392.094 44.926L391.863 45.899L391.869 45.9004L392.094 44.926ZM381.876 41.962L382.225 41.0249L382.225 41.0249L381.876 41.962ZM375.012 37.204L374.252 37.8548L374.261 37.865L375.012 37.204ZM374.778 19.888L375.607 20.4466L375.612 20.4388L374.778 19.888ZM382.5 13.726L382.103 12.8083L382.097 12.8105L382.5 13.726ZM405.432 12.712L405.674 11.7419L405.674 11.7419L405.432 12.712ZM414.168 16.3L415.094 16.6766L415.411 15.8976L414.698 15.452L414.168 16.3ZM410.268 25.894L409.774 26.7639L410.765 27.3256L411.194 26.2706L410.268 25.894ZM387.258 23.32L386.703 22.4879L386.697 22.4919L386.691 22.496L387.258 23.32ZM387.648 32.056L387.21 32.9552L387.225 32.9623L387.239 32.9688L387.648 32.056ZM396.618 34.708L396.849 33.7351L396.841 33.7332L396.833 33.7315L396.618 34.708ZM406.836 37.672L407.185 36.7349L407.185 36.7349L406.836 37.672ZM413.622 42.352L412.87 43.0119L412.879 43.022L413.622 42.352ZM413.856 59.59L413.029 59.0277L413.026 59.0314L413.856 59.59ZM406.056 65.674L405.659 64.7563L405.659 64.7563L406.056 65.674ZM393.342 66.936C389.115 66.936 385.021 66.376 381.055 65.2576L380.512 67.1824C384.659 68.352 388.936 68.936 393.342 68.936V66.936ZM381.07 65.2618C377.143 64.089 374.04 62.6011 371.72 60.8241L370.504 62.4119C373.072 64.3789 376.416 65.959 380.498 67.1782L381.07 65.2618ZM372.023 62.029L376.313 52.513L374.49 51.691L370.2 61.207L372.023 62.029ZM374.81 52.9084C377.25 54.6974 380.131 56.1202 383.441 57.1877L384.055 55.2843C380.916 54.2718 378.234 52.9386 375.993 51.2956L374.81 52.9084ZM383.441 57.1877C386.759 58.2581 390.086 58.796 393.42 58.796V56.796C390.305 56.796 387.185 56.2939 384.055 55.2843L383.441 57.1877ZM393.42 58.796C397.066 58.796 399.942 58.2744 401.894 57.0912L400.857 55.3808C399.378 56.2776 396.949 56.796 393.42 56.796V58.796ZM401.913 57.0797C403.866 55.8365 404.95 54.1122 404.95 51.946H402.95C402.95 53.3158 402.317 54.4515 400.839 55.3923L401.913 57.0797ZM404.95 51.946C404.95 50.3337 404.285 48.9835 403.014 47.9671L401.765 49.5289C402.575 50.1765 402.95 50.9583 402.95 51.946H404.95ZM403.057 48.0028C401.94 47.0035 400.506 46.2417 398.797 45.6903L398.183 47.5937C399.697 48.0823 400.864 48.7245 401.723 49.4932L403.057 48.0028ZM398.806 45.6933C397.203 45.1588 395.036 44.5786 392.319 43.9516L391.869 45.9004C394.56 46.5214 396.657 47.0852 398.174 47.5907L398.806 45.6933ZM392.325 43.9531C388.187 42.9703 384.824 41.9933 382.225 41.0249L381.527 42.8991C384.231 43.9067 387.681 44.9057 391.863 45.8989L392.325 43.9531ZM382.225 41.0249C379.732 40.0961 377.58 38.6069 375.762 36.543L374.261 37.865C376.291 40.169 378.716 41.8519 381.527 42.8991L382.225 41.0249ZM375.771 36.5532C374.092 34.5945 373.204 31.9345 373.204 28.468H371.204C371.204 32.2815 372.187 35.4455 374.252 37.8548L375.771 36.5532ZM373.204 28.468C373.204 25.4881 374.006 22.8239 375.607 20.4466L373.948 19.3294C372.117 22.0481 371.204 25.1038 371.204 28.468H373.204ZM375.612 20.4388C377.202 18.0296 379.61 16.088 382.902 14.6415L382.097 12.8105C378.525 14.38 375.785 16.5464 373.943 19.3372L375.612 20.4388ZM382.897 14.6437C386.223 13.2042 390.317 12.464 395.214 12.464V10.464C390.126 10.464 385.745 11.2318 382.103 12.8083L382.897 14.6437ZM395.214 12.464C398.617 12.464 401.942 12.8703 405.189 13.6821L405.674 11.7419C402.266 10.8897 398.778 10.464 395.214 10.464V12.464ZM405.189 13.6821C408.432 14.4928 411.244 15.6518 413.638 17.148L414.698 15.452C412.1 13.8282 409.087 12.5952 405.674 11.7419L405.189 13.6821ZM413.241 15.9234L409.341 25.5174L411.194 26.2706L415.094 16.6766L413.241 15.9234ZM410.761 25.0241C405.589 22.0917 400.377 20.604 395.136 20.604V22.604C399.982 22.604 404.858 23.9763 409.774 26.7639L410.761 25.0241ZM395.136 20.604C391.528 20.604 388.663 21.1811 386.703 22.4879L387.812 24.152C389.284 23.1709 391.672 22.604 395.136 22.604V20.604ZM386.691 22.496C384.781 23.8092 383.762 25.6133 383.762 27.844H385.762C385.762 26.3307 386.406 25.1188 387.824 24.144L386.691 22.496ZM383.762 27.844C383.762 28.9607 384.052 29.9812 384.658 30.8662C385.259 31.7436 386.132 32.4306 387.21 32.9552L388.085 31.1568C387.24 30.7454 386.669 30.2624 386.308 29.7358C385.953 29.2168 385.762 28.5993 385.762 27.844H383.762ZM387.239 32.9688C389.31 33.8951 392.38 34.7964 396.402 35.6845L396.833 33.7315C392.848 32.8516 389.938 31.9849 388.056 31.1432L387.239 32.9688ZM396.387 35.6809C400.525 36.6637 403.887 37.6407 406.487 38.6091L407.185 36.7349C404.48 35.7273 401.031 34.7283 396.849 33.7351L396.387 35.6809ZM406.487 38.6091C408.983 39.5392 411.107 41.0037 412.87 43.0118L414.373 41.6922C412.392 39.4363 409.992 37.7808 407.185 36.7349L406.487 38.6091ZM412.879 43.022C414.597 44.925 415.508 47.549 415.508 51.01H417.508C417.508 47.191 416.495 44.043 414.364 41.682L412.879 43.022ZM415.508 51.01C415.508 53.9278 414.685 56.5922 413.029 59.0277L414.683 60.1523C416.563 57.3878 417.508 54.3322 417.508 51.01H415.508ZM413.026 59.0314C411.44 61.3872 409.009 63.3063 405.659 64.7563L406.453 66.5917C410.071 65.0257 412.84 62.8888 414.685 60.1486L413.026 59.0314ZM405.659 64.7563C402.333 66.1958 398.238 66.936 393.342 66.936V68.936C398.429 68.936 402.811 68.1682 406.453 66.5917L405.659 64.7563ZM425.142 12.4V11.4H424.142V12.4H425.142ZM437.778 12.4H438.778V11.4H437.778V12.4ZM437.778 67V68H438.778V67H437.778ZM425.142 67H424.142V68H425.142V67ZM425.142 13.4H437.778V11.4H425.142V13.4ZM436.778 12.4V67H438.778V12.4H436.778ZM437.778 66H425.142V68H437.778V66ZM426.142 67V12.4H424.142V67H426.142ZM487.63 38.842V37.842H486.63V38.842H487.63ZM499.174 38.842H500.174V37.842H499.174V38.842ZM499.174 60.994L499.776 61.7923L500.174 61.4923V60.994H499.174ZM488.878 66.142L489.171 67.0981L489.171 67.0981L488.878 66.142ZM461.812 64.348L461.336 65.2279L461.344 65.232L461.812 64.348ZM451.126 54.286L450.265 54.7944L450.268 54.8005L450.272 54.8066L451.126 54.286ZM451.126 25.192L450.269 24.676L450.267 24.679L451.126 25.192ZM461.89 15.13L462.353 16.0163L462.361 16.0121L461.89 15.13ZM490.36 13.882L490.742 12.9578L490.742 12.9578L490.36 13.882ZM500.188 20.902L500.866 21.6368L501.577 20.9803L500.944 20.248L500.188 20.902ZM492.076 28.39L491.35 29.0785L492.029 29.7936L492.754 29.1248L492.076 28.39ZM468.676 24.412L469.15 25.2925L469.15 25.2925L468.676 24.412ZM462.358 48.748L461.488 49.2423L461.488 49.2423L462.358 48.748ZM468.598 54.988L468.103 55.8573L468.113 55.863L468.124 55.8685L468.598 54.988ZM487.63 54.832L488.102 55.7135L488.63 55.4307V54.832H487.63ZM487.63 39.842H499.174V37.842H487.63V39.842ZM498.174 38.842V60.994H500.174V38.842H498.174ZM498.571 60.1957C495.709 62.3549 492.384 64.0207 488.585 65.1859L489.171 67.0981C493.171 65.8713 496.71 64.1051 499.776 61.7923L498.571 60.1957ZM488.585 65.1859C484.776 66.3538 480.949 66.936 477.1 66.936V68.936C481.154 68.936 485.179 68.3222 489.171 67.0981L488.585 65.1859ZM477.1 66.936C471.577 66.936 466.644 65.7719 462.279 63.464L461.344 65.232C466.027 67.7081 471.287 68.936 477.1 68.936V66.936ZM462.287 63.4682C457.914 61.1057 454.485 57.8737 451.98 53.7654L450.272 54.8066C452.967 59.2263 456.662 62.7023 461.336 65.2278L462.287 63.4682ZM451.987 53.7776C449.537 49.6277 448.304 44.9438 448.304 39.7H446.304C446.304 45.2722 447.619 50.3123 450.265 54.7944L451.987 53.7776ZM448.304 39.7C448.304 34.4561 449.537 29.8003 451.984 25.705L450.267 24.679C447.619 29.1117 446.304 34.1279 446.304 39.7H448.304ZM451.982 25.708C454.485 21.5532 457.935 18.3255 462.353 16.0162L461.426 14.2438C456.692 16.7185 452.966 20.1988 450.269 24.676L451.982 25.708ZM462.361 16.0121C466.777 13.6532 471.761 12.464 477.334 12.464V10.464C471.467 10.464 466.154 11.7188 461.419 14.2479L462.361 16.0121ZM477.334 12.464C482.004 12.464 486.214 13.2505 489.978 14.8062L490.742 12.9578C486.705 11.2895 482.231 10.464 477.334 10.464V12.464ZM489.978 14.8062C493.74 16.361 496.885 18.6109 499.431 21.556L500.944 20.248C498.186 17.0571 494.78 14.6269 490.742 12.9578L489.978 14.8062ZM499.509 20.1672L491.397 27.6552L492.754 29.1248L500.866 21.6368L499.509 20.1672ZM492.801 27.7015C488.718 23.4008 483.752 21.228 477.958 21.228V23.228C483.187 23.228 487.633 25.1632 491.35 29.0785L492.801 27.7015ZM477.958 21.228C474.331 21.228 471.07 21.987 468.202 23.5315L469.15 25.2925C471.689 23.925 474.617 23.228 477.958 23.228V21.228ZM468.202 23.5315C465.333 25.076 463.09 27.2633 461.488 30.0797L463.227 31.0683C464.642 28.5807 466.61 26.66 469.15 25.2925L468.202 23.5315ZM461.488 30.0797C459.884 32.9004 459.096 36.1168 459.096 39.7H461.096C461.096 36.4192 461.815 33.5516 463.227 31.0683L461.488 30.0797ZM459.096 39.7C459.096 43.2342 459.886 46.4238 461.488 49.2423L463.227 48.2537C461.814 45.7682 461.096 42.9258 461.096 39.7H459.096ZM461.488 49.2423C463.085 52.0508 465.295 54.2603 468.103 55.8573L469.092 54.1187C466.596 52.6997 464.646 50.7492 463.227 48.2537L461.488 49.2423ZM468.124 55.8685C470.99 57.4118 474.224 58.172 477.802 58.172V56.172C474.515 56.172 471.614 55.4762 469.072 54.1075L468.124 55.8685ZM477.802 58.172C481.589 58.172 485.03 57.359 488.102 55.7135L487.158 53.9505C484.405 55.425 481.294 56.172 477.802 56.172V58.172ZM488.63 54.832V38.842H486.63V54.832H488.63ZM560.988 12.4H561.988V11.4H560.988V12.4ZM560.988 67V68H561.988V67H560.988ZM550.614 67L549.841 67.6346L550.141 68H550.614V67ZM523.392 33.85L524.164 33.2154L522.392 31.0565V33.85H523.392ZM523.392 67V68H524.392V67H523.392ZM510.912 67H509.912V68H510.912V67ZM510.912 12.4V11.4H509.912V12.4H510.912ZM521.364 12.4L522.137 11.7665L521.837 11.4H521.364V12.4ZM548.507 45.55L547.734 46.1835L549.507 48.3497V45.55H548.507ZM548.507 12.4V11.4H547.507V12.4H548.507ZM559.988 12.4V67H561.988V12.4H559.988ZM560.988 66H550.614V68H560.988V66ZM551.386 66.3654L524.164 33.2154L522.619 34.4846L549.841 67.6346L551.386 66.3654ZM522.392 33.85V67H524.392V33.85H522.392ZM523.392 66H510.912V68H523.392V66ZM511.912 67V12.4H509.912V67H511.912ZM510.912 13.4H521.364V11.4H510.912V13.4ZM520.59 13.0335L547.734 46.1835L549.281 44.9165L522.137 11.7665L520.59 13.0335ZM549.507 45.55V12.4H547.507V45.55H549.507ZM548.507 13.4H560.988V11.4H548.507V13.4ZM616.182 56.86H617.182V55.86H616.182V56.86ZM616.182 67V68H617.182V67H616.182ZM573.906 67H572.906V68H573.906V67ZM573.906 12.4V11.4H572.906V12.4H573.906ZM615.168 12.4H616.168V11.4H615.168V12.4ZM615.168 22.54V23.54H616.168V22.54H615.168ZM586.464 22.54V21.54H585.464V22.54H586.464ZM586.464 34.396H585.464V35.396H586.464V34.396ZM611.814 34.396H612.814V33.396H611.814V34.396ZM611.814 44.224V45.224H612.814V44.224H611.814ZM586.464 44.224V43.224H585.464V44.224H586.464ZM586.464 56.86H585.464V57.86H586.464V56.86ZM615.182 56.86V67H617.182V56.86H615.182ZM616.182 66H573.906V68H616.182V66ZM574.906 67V12.4H572.906V67H574.906ZM573.906 13.4H615.168V11.4H573.906V13.4ZM614.168 12.4V22.54H616.168V12.4H614.168ZM615.168 21.54H586.464V23.54H615.168V21.54ZM585.464 22.54V34.396H587.464V22.54H585.464ZM586.464 35.396H611.814V33.396H586.464V35.396ZM610.814 34.396V44.224H612.814V34.396H610.814ZM611.814 43.224H586.464V45.224H611.814V43.224ZM585.464 44.224V56.86H587.464V44.224H585.464ZM586.464 57.86H616.182V55.86H586.464V57.86ZM661.024 67L660.202 67.5692L660.5 68H661.024V67ZM650.494 51.79L651.316 51.2208L651.018 50.79H650.494V51.79ZM638.872 51.79V50.79H637.872V51.79H638.872ZM638.872 67V68H639.872V67H638.872ZM626.236 67H625.236V68H626.236V67ZM626.236 12.4V11.4H625.236V12.4H626.236ZM662.428 14.818L662.013 15.7279L662.018 15.7302L662.428 14.818ZM670.618 42.742L669.786 42.1873L669.783 42.1907L670.618 42.742ZM662.35 49.45L661.951 48.5329L660.83 49.0201L661.53 50.0222L662.35 49.45ZM674.596 67V68H676.513L675.416 66.4278L674.596 67ZM657.826 25.192L657.182 25.9569L657.188 25.9619L657.194 25.9669L657.826 25.192ZM638.872 22.696V21.696H637.872V22.696H638.872ZM638.872 41.728H637.872V42.728H638.872V41.728ZM657.826 39.232L658.47 39.9969L658.47 39.9969L657.826 39.232ZM661.846 66.4308L651.316 51.2208L649.672 52.3592L660.202 67.5692L661.846 66.4308ZM650.494 50.79H649.87V52.79H650.494V50.79ZM649.87 50.79H638.872V52.79H649.87V50.79ZM637.872 51.79V67H639.872V51.79H637.872ZM638.872 66H626.236V68H638.872V66ZM627.236 67V12.4H625.236V67H627.236ZM626.236 13.4H649.87V11.4H626.236V13.4ZM649.87 13.4C654.597 13.4 658.635 14.1879 662.013 15.7279L662.843 13.9081C659.149 12.2241 654.815 11.4 649.87 11.4V13.4ZM662.018 15.7302C665.451 17.2726 668.049 19.4416 669.857 22.2265L671.535 21.1375C669.494 17.9944 666.58 15.5874 662.838 13.9058L662.018 15.7302ZM669.857 22.2265C671.661 25.0054 672.582 28.3199 672.582 32.212H674.582C674.582 27.992 673.579 24.2866 671.535 21.1375L669.857 22.2265ZM672.582 32.212C672.582 36.0988 671.637 39.4096 669.786 42.1873L671.45 43.2967C673.55 40.1464 674.582 36.4372 674.582 32.212H672.582ZM669.783 42.1907C667.979 44.9221 665.384 47.0405 661.951 48.5329L662.748 50.3671C666.492 48.7395 669.409 46.3859 671.452 43.2933L669.783 42.1907ZM661.53 50.0222L673.776 67.5722L675.416 66.4278L663.17 48.8778L661.53 50.0222ZM674.596 66H661.024V68H674.596V66ZM661.79 32.212C661.79 28.9111 660.714 26.258 658.458 24.4171L657.194 25.9669C658.889 27.35 659.79 29.3769 659.79 32.212H661.79ZM658.47 24.4271C656.246 22.554 653.092 21.696 649.168 21.696V23.696C652.836 23.696 655.454 24.502 657.182 25.9569L658.47 24.4271ZM649.168 21.696H638.872V23.696H649.168V21.696ZM637.872 22.696V41.728H639.872V22.696H637.872ZM638.872 42.728H649.168V40.728H638.872V42.728ZM649.168 42.728C653.092 42.728 656.246 41.87 658.47 39.9969L657.182 38.4671C655.454 39.922 652.836 40.728 649.168 40.728V42.728ZM658.47 39.9969C660.71 38.1102 661.79 35.4681 661.79 32.212H659.79C659.79 34.9879 658.893 37.0258 657.182 38.4671L658.47 39.9969Z" fill="black"/>
</svg>
